# xmcd
#
# Track frame offsets:
#	150
#	11086
#	21860
#	32944
#	44176
#	56144
#	68934
#	76868
#	85804
#	96586
#	107615
#	118399
#	127193
#	138423
#	148707
#	158142
#	168669
#	177025
#	186908
#	195881
#	205161
#	215270
#	226514
#	236583
#	247655
#	257045
#	265161
#	274853
#	285903
#	297316
#	307984
#	319931
#
# Disc length: 4394 seconds
#
# Revision: 1
# Processed by: cddbd v1.5.2PL0 Copyright (c) Steve Scherf et al.
# Submitted via: EZCDAudioConverter 7.1.1.1
#
DISCID=d6112820
DTITLE=Rick Nelson - Rockin' Hillbilly - Vol. 04
DYEAR=1900
DGENRE=Hillbilly
TTITLE0=Jack Cardwell - Whiskey, Woman, Loaded Dice
TTITLE1=Fred Crawford - Never Gonna Get Married Again
TTITLE2=Bobby Lord - So Doggone Lonesome
TTITLE3=Doye O'Dell - Diesel Smoke
TTITLE4=Luke Simmons - Hobo Bill
TTITLE5=Red Sovine - I Hope You Don't Care
TTITLE6=Glenn Reeves - That'll Be Love (Fast Version)
TTITLE7=Ferlin Husky - You Make Feel So Funny
TTITLE8=Billy Briggs - Alarm Clock Boogie
TTITLE9=Luke McDaniel - The Automobile Song
TTITLE10=Marty Roberts - Big Black Horse
TTITLE11=Stan Hardin - Give Me All Your Lovin' Baby
TTITLE12=Ann Jones - Hi-Ballin' Daddy
TTITLE13=Skeets McDonald - Look Who's Cryin Now
TTITLE14=The Miller Brothers - Tulsa Baby
TTITLE15=Jack Cardwell - I'm Gonna Write A Song About You
TTITLE16=Barbara Allen - Make Your Mind Up
TTITLE17=Jimmy Vernon - Dog Bite Your Hide
TTITLE18=The Diamond Brothers - I Plowed Crooked Furrow
TTITLE19=Fred Crawford - Just Another Broken Heart
TTITLE20=Red Kirk - Davy Crockett Blues
TTITLE21=The Louvin Brothers - Dog Sled
TTITLE22=Al Terry - Hey, Whatta Y'Say
TTITLE23=Bobby Grove - No Parkin' Here
TTITLE24=Bill Philips - There's A Change In Me
TTITLE25=Whitey Pullen - Crazy In Love
TTITLE26=Tony Douglas - Old Blue Monday
TTITLE27=Charlie Gore - Long Walk Back To Town
TTITLE28=Jam-Up and Honey - Holding The Sack
TTITLE29=Hoyle Nix - Big Balls In Cowtown
TTITLE30=Howington Brothers - Alabama Julibee
TTITLE31=The Country Cats - Hot Strings
EXTD=
EXTT0=
EXTT1=
EXTT2=
EXTT3=
EXTT4=
EXTT5=
EXTT6=
EXTT7=
EXTT8=
EXTT9=
EXTT10=
EXTT11=
EXTT12=
EXTT13=
EXTT14=
EXTT15=
EXTT16=
EXTT17=
EXTT18=
EXTT19=
EXTT20=
EXTT21=
EXTT22=
EXTT23=
EXTT24=
EXTT25=
EXTT26=
EXTT27=
EXTT28=
EXTT29=
EXTT30=
EXTT31=
PLAYORDER=
